<svg width="219" height="72" viewBox="0 0 219 72" fill="none" xmlns="http://www.w3.org/2000/svg">
<path d="M97.3396 12.6287H93.5368V18.512H91.9976V4.21094H97.3396C100.011 4.21094 101.776 5.88543 101.776 8.4198C101.731 10.9542 99.9653 12.6287 97.3396 12.6287ZM97.1585 5.56864H93.4915V11.271H97.1585C99.0599 11.271 100.192 10.1848 100.192 8.4198C100.192 6.60954 99.1052 5.56864 97.1585 5.56864Z" fill="#495786"/>
<path d="M106.076 13.9411C106.121 14.8462 106.166 15.2535 106.393 15.7061C106.845 16.7922 107.751 17.3353 109.064 17.3353C109.516 17.3353 109.969 17.2448 110.331 17.109C110.784 16.928 111.056 16.747 111.554 16.2039L112.55 17.0638C111.825 17.7879 111.463 18.0142 110.875 18.2404C110.331 18.4667 109.698 18.6025 108.973 18.6025C106.121 18.6025 104.627 16.8375 104.627 13.4885C104.627 10.3658 106.166 8.51025 108.702 8.51025C111.191 8.51025 112.776 10.3205 112.776 13.3075V13.9863H106.076V13.9411ZM111.146 11.5425C110.784 10.411 109.879 9.73218 108.702 9.73218C107.66 9.73218 106.8 10.2753 106.393 11.2257C106.212 11.6782 106.121 11.995 106.076 12.8549H111.282C111.282 12.0855 111.282 11.9045 111.146 11.5425Z" fill="#495786"/>
<path d="M122.419 18.331C121.921 18.512 121.378 18.6478 120.744 18.6478C117.982 18.6478 116.307 16.747 116.307 13.579C116.307 10.411 117.982 8.51025 120.744 8.51025C121.378 8.51025 121.921 8.60077 122.419 8.82705C122.962 9.05333 123.279 9.32487 123.958 10.0037L122.962 10.9089C122.464 10.3658 122.238 10.1847 121.83 10.0037C121.513 9.86795 121.151 9.77744 120.744 9.77744C118.797 9.77744 117.756 11.0446 117.756 13.5337C117.756 16.0229 118.752 17.29 120.698 17.29C121.106 17.29 121.468 17.2448 121.785 17.109C122.192 16.928 122.419 16.747 122.962 16.2039L123.958 17.1543C123.279 17.8331 122.962 18.1047 122.419 18.331Z" fill="#495786"/>
<path d="M130.16 20.9106C129.707 22.1777 128.893 22.7661 127.534 22.7661H126.901V21.4989H127.353C128.304 21.4989 128.621 21.2726 128.983 20.277L129.707 18.3309L126.131 8.646H127.716L130.432 16.5659L133.103 8.646H134.687L130.16 20.9106Z" fill="#495786"/>
<path d="M141.839 18.6025C141.251 18.6025 140.708 18.512 140.255 18.2857C139.847 18.1047 139.576 17.8784 139.123 17.3353V22.9019H137.674V8.60077H139.123V9.77744C139.576 9.23436 139.847 9.05333 140.255 8.82705C140.708 8.60077 141.206 8.51025 141.839 8.51025C144.375 8.51025 145.552 10.0942 145.552 13.579C145.506 17.0185 144.375 18.6025 141.839 18.6025ZM141.613 9.77744C139.893 9.77744 139.123 10.9089 139.123 13.5337C139.123 16.2039 139.847 17.29 141.613 17.29C143.333 17.29 144.103 16.1586 144.103 13.5337C144.103 10.9089 143.379 9.77744 141.613 9.77744Z" fill="#495786"/>
<path d="M155.194 18.331C154.696 18.512 154.153 18.6478 153.519 18.6478C150.758 18.6478 149.083 16.747 149.083 13.579C149.083 10.411 150.758 8.51025 153.519 8.51025C154.153 8.51025 154.696 8.60077 155.194 8.82705C155.738 9.05333 156.054 9.32487 156.734 10.0037L155.738 10.9089C155.24 10.3658 155.013 10.1847 154.606 10.0037C154.289 9.86795 153.927 9.77744 153.519 9.77744C151.573 9.77744 150.531 11.0446 150.531 13.5337C150.531 16.0229 151.527 17.29 153.474 17.29C153.881 17.29 154.244 17.2448 154.56 17.109C154.968 16.928 155.194 16.747 155.738 16.2039L156.734 17.1543C156.054 17.8331 155.738 18.1047 155.194 18.331Z" fill="#495786"/>
<path d="M166.693 18.512V14.0315H161.894V18.512H160.491V8.646H161.894V12.8096H166.693V8.646H168.142V18.512H166.693Z" fill="#495786"/>
<path d="M177.196 18.512H172.804V8.646H174.208V12.5833H177.196C179.097 12.5833 180.319 13.76 180.319 15.5703C180.319 17.3353 179.097 18.512 177.196 18.512ZM177.015 13.8053H174.208V17.2448H177.015C178.237 17.2448 178.871 16.6112 178.871 15.525C178.871 14.4389 178.237 13.8053 177.015 13.8053ZM181.904 18.512V8.646H183.353V18.512H181.904Z" fill="#495786"/>
<path d="M194.716 18.512V10.8636L189.645 18.512H188.242V8.64606H189.645V16.2492L194.716 8.64606H196.164V18.512H194.716ZM192.18 6.88106C190.505 6.88106 189.373 6.15695 189.238 4.34668H190.505C190.596 5.34233 191.184 5.84015 192.135 5.84015C193.131 5.84015 193.72 5.34233 193.765 4.34668H195.032C194.987 6.15695 193.855 6.88106 192.18 6.88106Z" fill="#495786"/>
<path d="M102.991 40.8821V30.0205L99.0525 38.6193H97.7397L93.7558 30.0205V40.8821H92.2166V26.5811H93.7558L98.4187 36.7185L102.946 26.5811H104.485V40.8821H102.991Z" fill="#495786"/>
<path d="M115.492 40.1897C114.768 40.9138 113.772 41.3211 112.64 41.3211C111.508 41.3211 110.512 40.9138 109.788 40.1897C108.928 39.3298 108.566 38.1531 108.566 36.2523C108.566 34.3516 108.928 33.1749 109.788 32.315C110.512 31.5909 111.508 31.1836 112.64 31.1836C113.727 31.1836 114.768 31.5909 115.492 32.315C116.352 33.1749 116.715 34.3516 116.715 36.2071C116.669 38.1531 116.352 39.3298 115.492 40.1897ZM114.451 33.2201C113.998 32.7676 113.365 32.496 112.64 32.496C111.961 32.496 111.282 32.7676 110.875 33.2201C110.286 33.8085 110.06 34.6684 110.06 36.2523C110.06 37.8363 110.286 38.6962 110.875 39.2845C111.327 39.7371 111.961 40.0086 112.64 40.0086C113.365 40.0086 113.998 39.7371 114.451 39.2845C114.994 38.6962 115.221 37.8816 115.221 36.2976C115.221 34.6231 115.04 33.8085 114.451 33.2201Z" fill="#495786"/>
<path d="M126.493 41.1858V32.5418H123.007V35.936C123.007 40.0544 121.695 41.1405 119.884 41.1405H119.205V39.8733H119.521C120.427 39.8733 121.604 39.6018 121.604 35.4834V31.3198H127.942V41.1858H126.493Z" fill="#495786"/>
<path d="M138.898 40.1897C138.173 40.9138 137.177 41.3211 136.046 41.3211C134.914 41.3211 133.918 40.9138 133.193 40.1897C132.333 39.3298 131.971 38.1531 131.971 36.2523C131.971 34.3516 132.333 33.1749 133.193 32.315C133.918 31.5909 134.914 31.1836 136.046 31.1836C137.132 31.1836 138.173 31.5909 138.898 32.315C139.758 33.1749 140.12 34.3516 140.12 36.2071C140.12 38.1531 139.758 39.3298 138.898 40.1897ZM137.856 33.2201C137.404 32.7676 136.77 32.496 136.046 32.496C135.366 32.496 134.687 32.7676 134.28 33.2201C133.691 33.8085 133.465 34.6684 133.465 36.2523C133.465 37.8363 133.691 38.6962 134.28 39.2845C134.733 39.7371 135.366 40.0086 136.046 40.0086C136.77 40.0086 137.404 39.7371 137.856 39.2845C138.4 38.6962 138.626 37.8816 138.626 36.2976C138.671 34.6231 138.445 33.8085 137.856 33.2201Z" fill="#495786"/>
<path d="M151.301 44.1717V41.2301H143.967V44.1717H142.564V39.9629H143.741C144.465 38.3336 145.054 36.7949 145.054 33.2196V31.3188H151.256V39.9629H152.704V44.1717H151.301ZM149.807 32.586H146.412V34.4416C146.412 37.0664 145.914 38.5147 145.28 39.9629H149.762V32.586H149.807Z" fill="#495786"/>
<path d="M157.096 36.6593C157.141 37.5644 157.186 37.9718 157.412 38.4243C157.865 39.5105 158.771 40.0536 160.083 40.0536C160.536 40.0536 160.989 39.963 161.351 39.8273C161.804 39.6463 162.075 39.4652 162.573 38.9221L163.569 39.782C162.845 40.5061 162.483 40.7324 161.894 40.9587C161.351 41.185 160.717 41.3208 159.993 41.3208C157.141 41.3208 155.647 39.5557 155.647 36.2067C155.647 33.084 157.186 31.2285 159.721 31.2285C162.256 31.2285 163.796 33.0388 163.796 36.0257V36.7046H157.096V36.6593ZM162.121 34.2607C161.759 33.1293 160.853 32.4505 159.676 32.4505C158.635 32.4505 157.775 32.9935 157.367 33.9439C157.186 34.3965 157.096 34.7133 157.05 35.5732H162.256C162.256 34.8038 162.256 34.6228 162.121 34.2607Z" fill="#495786"/>
<path d="M165.742 41.1848L170.36 35.9803L166.104 31.3188H167.87L172.035 36.0708V31.3188H173.484V36.0708L177.694 31.3188H179.459L175.204 35.9803L179.822 41.1848H178.011L173.484 36.0708V41.1848H172.035V36.0708L167.508 41.1848H165.742Z" fill="#495786"/>
<path d="M189.011 41.1848V36.7497H184.213V41.2301H182.809V31.3188H184.213V35.4825H189.011V31.3188H190.46V41.1848H189.011Z" fill="#495786"/>
<path d="M199.514 41.1848H195.123V31.3188H196.526V35.2562H199.514C201.416 35.2562 202.638 36.4328 202.638 38.2431C202.638 40.0081 201.416 41.1848 199.514 41.1848ZM199.333 36.5234H196.526V39.9629H199.333C200.555 39.9629 201.189 39.3293 201.189 38.2431C201.189 37.1117 200.555 36.5234 199.333 36.5234ZM204.222 41.1848V31.3188H205.671V41.1848H204.222Z" fill="#495786"/>
<path d="M217.034 41.185V33.5366L211.963 41.185H210.56V31.3191H211.963V38.9222L217.034 31.3191H218.483V41.185H217.034ZM214.499 29.5993C212.824 29.5993 211.692 28.8752 211.556 27.0649H212.824C212.914 28.0606 213.503 28.5584 214.453 28.5584C215.449 28.5584 216.038 28.0606 216.083 27.0649H217.351C217.305 28.8752 216.174 29.5993 214.499 29.5993Z" fill="#495786"/>
<path d="M101.964 67.6884V64.2489H91.9592V49.9478H93.4984V62.8912H100.244V49.9478H101.783V62.8912H103.503V67.6884H101.964Z" fill="#495786"/>
<path d="M108.068 59.3327C108.113 60.2378 108.158 60.6451 108.384 61.0977C108.837 62.1838 109.743 62.7269 111.055 62.7269C111.508 62.7269 111.961 62.6364 112.323 62.5006C112.776 62.3196 113.047 62.1386 113.545 61.5955L114.541 62.4554C113.817 63.1795 113.455 63.4058 112.866 63.632C112.323 63.8583 111.689 63.9941 110.965 63.9941C108.113 63.9941 106.619 62.2291 106.619 58.8801C106.619 55.7574 108.158 53.9019 110.693 53.9019C113.183 53.9019 114.768 55.7121 114.768 58.6991V59.3779H108.068V59.3327ZM113.093 56.9793C112.73 55.8479 111.825 55.1691 110.648 55.1691C109.607 55.1691 108.747 55.7121 108.339 56.6625C108.158 57.1151 108.068 57.4319 108.022 58.2918H113.228C113.228 57.5224 113.228 57.3414 113.093 56.9793Z" fill="#495786"/>
<path d="M125.044 63.9036V59.4231H120.245V63.9036H118.842V54.0376H120.245V58.2012H125.044V54.0376H126.493V63.9036H125.044Z" fill="#495786"/>
<path d="M134.37 55.2594V63.9034H132.921V55.2594H129.526V53.9922H137.584V55.2594H134.37Z" fill="#495786"/>
<path d="M144.782 64.0395C144.194 64.0395 143.65 63.949 143.198 63.7227C142.79 63.5417 142.518 63.3154 142.066 62.7723V68.3389H140.617V54.0378H142.066V55.2144C142.518 54.6714 142.79 54.4904 143.198 54.2641C143.65 54.0378 144.148 53.9473 144.782 53.9473C147.317 53.9473 148.494 55.5313 148.494 59.016C148.449 62.4103 147.317 64.0395 144.782 64.0395ZM144.51 55.2144C142.79 55.2144 142.02 56.3459 142.02 58.9708C142.02 61.6409 142.745 62.7271 144.51 62.7271C146.231 62.7271 147 61.5957 147 58.9708C147 56.3006 146.276 55.2144 144.51 55.2144Z" fill="#495786"/>
<path d="M39.7549 32.1344C37.6272 30.0073 34.2318 30.0073 32.1493 32.1344C30.0216 34.2614 30.0216 37.6557 32.1493 39.7375C34.2771 41.8645 37.6725 41.8645 39.7549 39.7375C41.8827 37.6104 41.8827 34.2162 39.7549 32.1344Z" fill="#DA9846"/>
<path d="M12.0941 30.415C13.0901 29.4193 13.0901 27.7448 12.0941 26.7492C11.0981 25.7535 9.42307 25.7535 8.42709 26.7492C7.43112 27.7448 7.43112 29.4193 8.42709 30.415C9.42307 31.4106 11.0981 31.4106 12.0941 30.415Z" fill="#495786"/>
<path d="M4.71487 34.0807C3.7189 33.0851 2.04385 33.0851 1.04788 34.0807C0.0519104 35.0764 0.0519104 36.7509 1.04788 37.7465C2.04385 38.7422 3.7189 38.7422 4.71487 37.7465C5.71084 36.7509 5.71084 35.0764 4.71487 34.0807Z" fill="#495786"/>
<path d="M30.2932 12.1762C31.2892 11.1805 31.2892 9.50605 30.2932 8.51041C29.2973 7.51476 27.6222 7.51476 26.6262 8.51041C25.6303 9.50605 25.6303 11.1805 26.6262 12.1762C27.6222 13.2171 29.2973 13.2171 30.2932 12.1762Z" fill="#495786"/>
<path d="M21.5106 21.4994C22.5066 20.5038 22.5066 18.8293 21.5106 17.8336C20.5146 16.838 18.8396 16.838 17.8436 17.8336C16.8476 18.8293 16.8476 20.5038 17.8436 21.4994C18.8396 22.4951 20.5146 22.4951 21.5106 21.4994Z" fill="#495786"/>
<path d="M23.8647 5.74989C24.3627 5.25207 24.3627 4.43744 23.8647 3.89436C23.3667 3.39654 22.5518 3.39654 22.0086 3.89436C21.5106 4.39219 21.5106 5.20681 22.0086 5.74989C22.5065 6.24772 23.3214 6.24772 23.8647 5.74989Z" fill="#495786"/>
<path d="M14.8104 14.8012C15.3084 14.3033 15.3084 13.4887 14.8104 12.9456C14.3124 12.4478 13.4976 12.4478 12.9543 12.9456C12.4563 13.4435 12.4563 14.2581 12.9543 14.8012C13.4976 15.299 14.3124 15.299 14.8104 14.8012Z" fill="#495786"/>
<path d="M37.6724 4.84465C38.6684 3.84901 38.6684 2.17451 37.6724 1.17886C36.6765 0.183217 35.0014 0.183217 34.0055 1.17886C33.0095 2.17451 33.0095 3.84901 34.0055 4.84465C35.0014 5.8403 36.6765 5.8403 37.6724 4.84465Z" fill="#495786"/>
<path d="M66.4639 48.3358C65.9659 48.8336 65.9659 49.6482 66.4639 50.1913C66.9619 50.6891 67.7768 50.6891 68.32 50.1913C68.818 49.6935 68.818 48.8788 68.32 48.3358C67.7768 47.8379 67.0071 47.8379 66.4639 48.3358Z" fill="#495786"/>
<path d="M57.4097 57.3866C56.9118 57.8844 56.9118 58.699 57.4097 59.2421C57.9077 59.7399 58.7226 59.7399 59.2659 59.2421C59.7639 58.7443 59.7639 57.9296 59.2659 57.3866C58.7679 56.8887 57.953 56.8887 57.4097 57.3866Z" fill="#495786"/>
<path d="M60.0355 27.1559C59.0395 28.1516 59.0395 29.8261 60.0355 30.8217C61.0315 31.8174 62.7065 31.8174 63.7025 30.8217C64.6985 29.8261 64.6985 28.1516 63.7025 27.1559C62.7065 26.1603 61.0315 26.1603 60.0355 27.1559Z" fill="#495786"/>
<path d="M68.32 24.395C68.818 23.8971 68.818 23.0825 68.32 22.5394C67.822 21.9964 67.0071 22.0416 66.4639 22.5394C65.9659 23.0373 65.9659 23.8519 66.4639 24.395C66.9619 24.9381 67.7768 24.9381 68.32 24.395Z" fill="#495786"/>
<path d="M5.62031 23.9432C6.1183 23.4454 6.1183 22.6308 5.62031 22.0877C5.12233 21.5899 4.30743 21.5899 3.76418 22.0877C3.26619 22.5855 3.26619 23.4002 3.76418 23.9432C4.30743 24.4863 5.12233 24.4863 5.62031 23.9432Z" fill="#495786"/>
<path d="M5.62025 47.8831C5.12226 47.3853 4.30737 47.3853 3.76412 47.8831C3.26613 48.381 3.26613 49.1956 3.76412 49.7386C4.2621 50.2365 5.07699 50.2365 5.62025 49.7386C6.16351 49.2408 6.16351 48.4262 5.62025 47.8831Z" fill="#495786"/>
<path d="M12.9993 57.0699C12.5013 57.5677 12.5013 58.3824 12.9993 58.9254C13.4973 59.4233 14.3122 59.4233 14.8554 58.9254C15.3534 58.4276 15.3534 57.613 14.8554 57.0699C14.3122 56.5268 13.4973 56.5268 12.9993 57.0699Z" fill="#495786"/>
<path d="M49.6232 5.74989C50.1212 5.25207 50.1212 4.43744 49.6232 3.89436C49.1252 3.39654 48.3104 3.39654 47.7671 3.89436C47.2691 4.39219 47.2691 5.20681 47.7671 5.74989C48.3104 6.24772 49.1252 6.24772 49.6232 5.74989Z" fill="#495786"/>
<path d="M58.8132 14.9369C59.3112 14.4391 59.3112 13.6245 58.8132 13.0814C58.3152 12.5836 57.5003 12.5836 56.957 13.0814C56.4591 13.5792 56.4591 14.3938 56.957 14.9369C57.5003 15.4347 58.3152 15.4347 58.8132 14.9369Z" fill="#495786"/>
<path d="M45.0517 12.1762C46.0477 11.1805 46.0477 9.50605 45.0517 8.51041C44.0558 7.51476 42.3807 7.51476 41.3847 8.51041C40.3888 9.50605 40.3888 11.1805 41.3847 12.1762C42.3807 13.2171 44.0105 13.2171 45.0517 12.1762Z" fill="#495786"/>
<path d="M50.5287 21.3632C51.5246 22.3589 53.1997 22.3589 54.1957 21.3632C55.1916 20.3676 55.1916 18.6931 54.1957 17.6974C53.1997 16.7018 51.5246 16.7018 50.5287 17.6974C49.5327 18.6931 49.5327 20.3676 50.5287 21.3632Z" fill="#495786"/>
<path d="M14.8557 33.1755C13.3164 34.7143 13.3164 37.1581 14.8557 38.6968C16.3949 40.2356 18.8395 40.2356 20.3788 38.6968C21.918 37.1581 21.918 34.7143 20.3788 33.1755C18.8395 31.6368 16.3949 31.6368 14.8557 33.1755Z" fill="#495786"/>
<path d="M29.5689 47.8838C31.1081 46.3451 31.1081 43.9013 29.5689 42.3625C28.0297 40.8238 25.585 40.8238 24.0458 42.3625C22.5066 43.9013 22.5066 46.3451 24.0458 47.8838C25.5397 49.3773 28.0297 49.3773 29.5689 47.8838Z" fill="#495786"/>
<path d="M41.7914 60.1022C40.7954 61.0979 40.7954 62.7724 41.7914 63.768C42.7874 64.7637 44.4624 64.7637 45.4584 63.768C46.4544 62.7724 46.4544 61.0979 45.4584 60.1022C44.4624 59.1066 42.8327 59.1066 41.7914 60.1022Z" fill="#495786"/>
<path d="M34.4575 67.4787C33.4616 68.4743 33.4616 70.1488 34.4575 71.1445C35.4535 72.1401 37.1286 72.1401 38.1245 71.1445C39.1205 70.1488 39.1205 68.4743 38.1245 67.4787C37.1286 66.483 35.4535 66.483 34.4575 67.4787Z" fill="#495786"/>
<path d="M60.0355 41.9093C59.0395 42.9049 59.0395 44.5794 60.0355 45.5751C61.0315 46.5707 62.7065 46.5707 63.7025 45.5751C64.6985 44.5794 64.6985 42.9049 63.7025 41.9093C62.7065 40.9137 61.0315 40.8684 60.0355 41.9093Z" fill="#495786"/>
<path d="M50.9814 50.9157C49.9854 51.9113 49.9854 53.5858 50.9814 54.5815C51.9773 55.5771 53.6524 55.5771 54.6483 54.5815C55.6443 53.5858 55.6443 51.9113 54.6483 50.9157C53.6524 49.92 51.9773 49.92 50.9814 50.9157Z" fill="#495786"/>
<path d="M71.0816 34.5329C70.0856 33.5372 68.4106 33.5372 67.4146 34.5329C66.4186 35.5285 66.4186 37.203 67.4146 38.1987C68.4106 39.1943 70.0856 39.1943 71.0816 38.1987C72.0775 37.203 72.0775 35.5738 71.0816 34.5329Z" fill="#495786"/>
<path d="M48.2651 66.5738C47.7671 67.0716 47.7671 67.8863 48.2651 68.4293C48.7631 68.9272 49.578 68.9272 50.1212 68.4293C50.6192 67.9315 50.6192 67.1169 50.1212 66.5738C49.578 66.0307 48.7631 66.0307 48.2651 66.5738Z" fill="#495786"/>
<path d="M27.0785 60.1022C26.0825 61.0979 26.0825 62.7724 27.0785 63.768C28.0744 64.7637 29.7495 64.7637 30.7454 63.768C31.7414 62.7724 31.7414 61.0979 30.7454 60.1022C29.7495 59.1066 28.0744 59.1066 27.0785 60.1022Z" fill="#495786"/>
<path d="M22.4609 66.5738C21.9629 67.0716 21.9629 67.8863 22.4609 68.4293C22.9589 68.9272 23.7738 68.9272 24.317 68.4293C24.815 67.9315 24.815 67.1169 24.317 66.5738C23.7738 66.0307 22.9589 66.0307 22.4609 66.5738Z" fill="#495786"/>
<path d="M38.5779 20.4586C40.1172 18.9198 40.1172 16.476 38.5779 14.9373C37.0387 13.3985 34.594 13.3985 33.0548 14.9373C31.5156 16.476 31.5156 18.9198 33.0548 20.4586C34.594 21.9973 37.0387 21.9973 38.5779 20.4586Z" fill="#495786"/>
<path d="M12.0941 41.4577C11.0981 40.462 9.42307 40.462 8.42709 41.4577C7.43112 42.4533 7.43112 44.1278 8.42709 45.1235C9.42307 46.1191 11.0981 46.1191 12.0941 45.1235C13.0901 44.1278 13.0901 42.4533 12.0941 41.4577Z" fill="#495786"/>
<path d="M17.5717 50.6435C16.5757 51.6391 16.5757 53.3136 17.5717 54.3092C18.5677 55.3049 20.2427 55.3049 21.2387 54.3092C22.2346 53.3136 22.2346 51.6391 21.2387 50.6435C20.2427 49.6026 18.5677 49.6026 17.5717 50.6435Z" fill="#495786"/>
<path d="M33.5069 51.8206C31.9677 53.3593 31.9677 55.8031 33.5069 57.3419C35.0461 58.8806 37.4908 58.8806 39.03 57.3419C40.5693 55.8031 40.5693 53.3593 39.03 51.8206C37.4908 50.2818 35.0461 50.2818 33.5069 51.8206Z" fill="#495786"/>
<path d="M51.751 33.6272C50.2118 35.1659 50.2118 37.6098 51.751 39.1485C53.2902 40.6872 55.7349 40.6872 57.2741 39.1485C58.8133 37.6098 58.8133 35.1659 57.2741 33.6272C55.7349 32.0885 53.2449 32.0885 51.751 33.6272Z" fill="#495786"/>
<path d="M48.2207 48.2007C49.7599 46.662 49.7599 44.2182 48.2207 42.6794C46.6815 41.1407 44.2368 41.1407 42.6976 42.6794C41.1583 44.2182 41.1583 46.662 42.6976 48.2007C44.2368 49.6942 46.6815 49.6942 48.2207 48.2007Z" fill="#495786"/>
<path d="M29.252 29.1929C30.7912 27.6542 30.7912 25.2104 29.252 23.6716C27.7128 22.1329 25.2681 22.1329 23.7289 23.6716C22.1897 25.2104 22.1897 27.6542 23.7289 29.1929C25.2228 30.7317 27.7128 30.7317 29.252 29.1929Z" fill="#495786"/>
<path d="M47.768 29.6456C49.3072 28.1068 49.3072 25.663 47.768 24.1243C46.2288 22.5855 43.7841 22.5855 42.2449 24.1243C40.7056 25.663 40.7056 28.1068 42.2449 29.6456C43.7841 31.1843 46.2288 31.1843 47.768 29.6456Z" fill="#495786"/>
<path d="M65.9659 6.88124C66.2375 6.60971 66.2375 6.2024 65.9659 5.97612C65.6943 5.70458 65.2868 5.70458 65.0605 5.97612C64.7888 6.24765 64.7888 6.65496 65.0605 6.88124C65.2868 7.10753 65.6943 7.10753 65.9659 6.88124Z" fill="#495786"/>
<path d="M5.98235 64.9898C5.71072 65.2613 5.71072 65.6686 5.98235 65.8949C6.25398 66.1665 6.66142 66.1665 6.88778 65.8949C7.15941 65.6234 7.15941 65.2161 6.88778 64.9898C6.66142 64.7182 6.25398 64.7182 5.98235 64.9898Z" fill="#495786"/>
<path d="M64.8794 64.854C64.6078 65.1256 64.6078 65.5329 64.8794 65.7592C65.151 66.0307 65.5585 66.0307 65.7848 65.7592C66.0564 65.4876 66.0564 65.0803 65.7848 64.854C65.5585 64.5825 65.151 64.5825 64.8794 64.854Z" fill="#495786"/>
<path d="M6.43517 6.38358C6.16354 6.65512 6.16354 7.06243 6.43517 7.28872C6.7068 7.56026 7.11424 7.56026 7.3406 7.28872C7.61223 7.01718 7.61223 6.60986 7.3406 6.38358C7.06897 6.1573 6.66153 6.1573 6.43517 6.38358Z" fill="#495786"/>
</svg>
