<svg width="158" height="158" viewBox="0 0 158 158" fill="none" xmlns="http://www.w3.org/2000/svg">
<path d="M87.15 70.05C82.45 65.35 74.95 65.35 70.35 70.05C65.65 74.75 65.65 82.25 70.35 86.85C75.05 91.55 82.55 91.55 87.15 86.85C91.85 82.25 91.85 74.75 87.15 70.05Z" fill="#DB9D32"/>
<path d="M26.05 66.25C28.25 64.05 28.25 60.35 26.05 58.15C23.85 55.95 20.15 55.95 17.95 58.15C15.75 60.35 15.75 64.05 17.95 66.25C20.15 68.55 23.85 68.55 26.05 66.25Z" fill="#303F7B"/>
<path d="M9.75001 74.35C7.55001 72.15 3.85 72.15 1.65 74.35C-0.55 76.55 -0.55 80.25 1.65 82.45C3.85 84.65 7.55001 84.65 9.75001 82.45C11.95 80.35 11.95 76.65 9.75001 74.35Z" fill="#303F7B"/>
<path d="M66.25 26.05C68.45 23.85 68.45 20.15 66.25 17.95C64.05 15.75 60.35 15.75 58.15 17.95C55.95 20.15 55.95 23.85 58.15 26.05C60.35 28.25 64.05 28.25 66.25 26.05Z" fill="#303F7B"/>
<path d="M46.85 46.55C49.05 44.35 49.05 40.65 46.85 38.45C44.65 36.25 40.95 36.25 38.75 38.45C36.55 40.65 36.55 44.35 38.75 46.55C40.95 48.75 44.65 48.85 46.85 46.55Z" fill="#303F7B"/>
<path d="M52.05 11.75C53.15 10.65 53.15 8.85001 52.05 7.65001C50.95 6.55001 49.15 6.55001 47.95 7.65001C46.85 8.75001 46.85 10.55 47.95 11.75C49.05 12.95 50.85 12.95 52.05 11.75Z" fill="#303F7B"/>
<path d="M32.05 31.75C33.15 30.65 33.15 28.85 32.05 27.65C30.95 26.55 29.15 26.55 27.95 27.65C26.85 28.75 26.85 30.55 27.95 31.75C29.15 32.85 30.95 32.85 32.05 31.75Z" fill="#303F7B"/>
<path d="M82.55 9.74999C84.75 7.54999 84.75 3.85 82.55 1.65C80.35 -0.55 76.65 -0.55 74.45 1.65C72.25 3.85 72.25 7.54999 74.45 9.74999C76.65 11.95 80.35 11.95 82.55 9.74999Z" fill="#303F7B"/>
<path d="M146.15 105.95C145.05 107.05 145.05 108.85 146.15 110.05C147.25 111.15 149.05 111.15 150.25 110.05C151.35 108.95 151.35 107.15 150.25 105.95C149.05 104.75 147.35 104.75 146.15 105.95Z" fill="#303F7B"/>
<path d="M126.15 125.85C125.05 126.95 125.05 128.75 126.15 129.95C127.25 131.05 129.05 131.05 130.25 129.95C131.35 128.85 131.35 127.05 130.25 125.85C129.15 124.75 127.35 124.75 126.15 125.85Z" fill="#303F7B"/>
<path d="M131.95 59.15C129.75 61.35 129.75 65.05 131.95 67.25C134.15 69.45 137.85 69.45 140.05 67.25C142.25 65.05 142.25 61.35 140.05 59.15C137.85 56.85 134.15 56.85 131.95 59.15Z" fill="#303F7B"/>
<path d="M150.25 53.05C151.35 51.95 151.35 50.15 150.25 48.95C149.15 47.85 147.35 47.85 146.15 48.95C145.05 50.05 145.05 51.85 146.15 53.05C147.25 54.15 149.05 54.15 150.25 53.05Z" fill="#303F7B"/>
<path d="M11.75 52.05C12.85 50.95 12.85 49.15 11.75 47.95C10.65 46.85 8.84998 46.85 7.64998 47.95C6.54998 49.05 6.54998 50.85 7.64998 52.05C8.84998 53.15 10.65 53.15 11.75 52.05Z" fill="#303F7B"/>
<path d="M11.75 104.95C10.65 103.85 8.84998 103.85 7.64998 104.95C6.54998 106.05 6.54998 107.85 7.64998 109.05C8.74998 110.15 10.55 110.15 11.75 109.05C12.95 107.85 12.95 106.05 11.75 104.95Z" fill="#303F7B"/>
<path d="M28.05 125.15C26.95 126.25 26.95 128.05 28.05 129.25C29.15 130.35 30.95 130.35 32.15 129.25C33.25 128.15 33.25 126.35 32.15 125.15C30.95 124.05 29.15 124.05 28.05 125.15Z" fill="#303F7B"/>
<path d="M108.95 11.75C110.05 10.65 110.05 8.85001 108.95 7.65001C107.85 6.55001 106.05 6.55001 104.85 7.65001C103.75 8.75001 103.75 10.55 104.85 11.75C106.05 12.95 107.85 12.95 108.95 11.75Z" fill="#303F7B"/>
<path d="M129.25 32.05C130.35 30.95 130.35 29.15 129.25 27.95C128.15 26.85 126.35 26.85 125.15 27.95C124.05 29.05 124.05 30.85 125.15 32.05C126.35 33.15 128.15 33.15 129.25 32.05Z" fill="#303F7B"/>
<path d="M98.85 26.05C101.05 23.85 101.05 20.15 98.85 17.95C96.65 15.75 92.95 15.75 90.75 17.95C88.55 20.15 88.55 23.85 90.75 26.05C92.95 28.25 96.55 28.25 98.85 26.05Z" fill="#303F7B"/>
<path d="M110.95 46.35C113.15 48.55 116.85 48.55 119.05 46.35C121.25 44.15 121.25 40.45 119.05 38.25C116.85 36.05 113.15 36.05 110.95 38.25C108.75 40.35 108.75 44.05 110.95 46.35Z" fill="#303F7B"/>
<path d="M32.15 72.35C28.75 75.75 28.75 81.15 32.15 84.55C35.55 87.95 40.95 87.95 44.35 84.55C47.75 81.15 47.75 75.75 44.35 72.35C40.95 68.95 35.55 68.95 32.15 72.35Z" fill="#303F7B"/>
<path d="M64.65 104.85C68.05 101.45 68.05 96.05 64.65 92.65C61.25 89.25 55.85 89.25 52.45 92.65C49.05 96.05 49.05 101.45 52.45 104.85C55.75 108.25 61.25 108.25 64.65 104.85Z" fill="#303F7B"/>
<path d="M91.65 131.95C89.45 134.15 89.45 137.85 91.65 140.05C93.85 142.25 97.55 142.25 99.75 140.05C101.95 137.85 101.95 134.15 99.75 131.95C97.55 129.65 93.95 129.65 91.65 131.95Z" fill="#303F7B"/>
<path d="M75.45 148.15C73.25 150.35 73.25 154.05 75.45 156.25C77.65 158.45 81.35 158.45 83.55 156.25C85.75 154.05 85.75 150.35 83.55 148.15C81.35 145.95 77.65 145.95 75.45 148.15Z" fill="#303F7B"/>
<path d="M131.95 91.65C129.75 93.85 129.75 97.55 131.95 99.75C134.15 101.95 137.85 101.95 140.05 99.75C142.25 97.55 142.25 93.85 140.05 91.65C137.85 89.45 134.15 89.45 131.95 91.65Z" fill="#303F7B"/>
<path d="M111.95 111.65C109.75 113.85 109.75 117.55 111.95 119.75C114.15 121.95 117.85 121.95 120.05 119.75C122.25 117.55 122.25 113.85 120.05 111.65C117.85 109.45 114.15 109.45 111.95 111.65Z" fill="#303F7B"/>
<path d="M156.35 75.35C154.15 73.15 150.45 73.15 148.25 75.35C146.05 77.55 146.05 81.25 148.25 83.45C150.45 85.65 154.15 85.65 156.35 83.45C158.55 81.25 158.55 77.65 156.35 75.35Z" fill="#303F7B"/>
<path d="M105.95 146.15C104.85 147.25 104.85 149.05 105.95 150.25C107.05 151.35 108.85 151.35 110.05 150.25C111.15 149.15 111.15 147.35 110.05 146.15C108.85 145.05 107.05 145.05 105.95 146.15Z" fill="#303F7B"/>
<path d="M59.15 131.95C56.95 134.15 56.95 137.85 59.15 140.05C61.35 142.25 65.05 142.25 67.25 140.05C69.45 137.85 69.45 134.15 67.25 131.95C65.05 129.65 61.35 129.65 59.15 131.95Z" fill="#303F7B"/>
<path d="M48.95 146.15C47.85 147.25 47.85 149.05 48.95 150.25C50.05 151.35 51.85 151.35 53.05 150.25C54.15 149.15 54.15 147.35 53.05 146.15C51.85 145.05 50.05 145.05 48.95 146.15Z" fill="#303F7B"/>
<path d="M84.55 44.35C87.95 40.95 87.95 35.55 84.55 32.15C81.15 28.75 75.75 28.75 72.35 32.15C68.95 35.55 68.95 40.95 72.35 44.35C75.75 47.75 81.25 47.75 84.55 44.35Z" fill="#303F7B"/>
<path d="M26.05 90.65C23.85 88.45 20.15 88.45 17.95 90.65C15.75 92.85 15.75 96.55 17.95 98.75C20.15 100.95 23.85 100.95 26.05 98.75C28.25 96.55 28.25 92.95 26.05 90.65Z" fill="#303F7B"/>
<path d="M38.15 110.95C35.95 113.15 35.95 116.85 38.15 119.05C40.35 121.25 44.05 121.25 46.25 119.05C48.45 116.85 48.45 113.15 46.25 110.95C44.05 108.75 40.35 108.75 38.15 110.95Z" fill="#303F7B"/>
<path d="M73.35 113.65C69.95 117.05 69.95 122.45 73.35 125.85C76.75 129.25 82.15 129.25 85.55 125.85C88.95 122.45 88.95 117.05 85.55 113.65C82.15 110.25 76.75 110.25 73.35 113.65Z" fill="#303F7B"/>
<path d="M113.65 73.35C110.25 76.75 110.25 82.15 113.65 85.55C117.05 88.95 122.45 88.95 125.85 85.55C129.25 82.15 129.25 76.75 125.85 73.35C122.45 69.95 116.95 69.95 113.65 73.35Z" fill="#303F7B"/>
<path d="M105.85 105.55C109.25 102.15 109.25 96.75 105.85 93.35C102.45 89.95 97.05 89.95 93.65 93.35C90.25 96.75 90.25 102.15 93.65 105.55C97.05 108.95 102.45 108.95 105.85 105.55Z" fill="#303F7B"/>
<path d="M63.95 63.65C67.35 60.25 67.35 54.85 63.95 51.45C60.55 48.05 55.15 48.05 51.75 51.45C48.35 54.85 48.35 60.25 51.75 63.65C55.05 66.95 60.55 66.95 63.95 63.65Z" fill="#303F7B"/>
<path d="M104.85 64.65C108.25 61.25 108.25 55.85 104.85 52.45C101.45 49.05 96.05 49.05 92.65 52.45C89.25 55.85 89.25 61.25 92.65 64.65C96.05 67.95 101.45 67.95 104.85 64.65Z" fill="#303F7B"/>
<path d="M145.05 14.25C145.65 13.65 145.65 12.75 145.05 12.25C144.45 11.65 143.55 11.65 143.05 12.25C142.55 12.85 142.45 13.75 143.05 14.25C143.55 14.85 144.45 14.85 145.05 14.25Z" fill="#303F7B"/>
<path d="M12.55 142.65C11.95 143.25 11.95 144.15 12.55 144.65C13.15 145.25 14.05 145.25 14.55 144.65C15.05 144.05 15.15 143.15 14.55 142.65C14.05 142.15 13.15 142.15 12.55 142.65Z" fill="#303F7B"/>
<path d="M142.65 142.35C142.05 142.95 142.05 143.85 142.65 144.35C143.25 144.95 144.15 144.95 144.65 144.35C145.25 143.75 145.25 142.85 144.65 142.35C144.15 141.85 143.25 141.75 142.65 142.35Z" fill="#303F7B"/>
<path d="M13.55 13.25C12.95 13.85 12.95 14.75 13.55 15.25C14.15 15.85 15.05 15.85 15.55 15.25C16.05 14.65 16.15 13.75 15.55 13.25C14.95 12.65 14.05 12.65 13.55 13.25Z" fill="#303F7B"/>
</svg>
