<svg id="Capa_1" enable-background="new 0 0 442.448 442.448" height="512" viewBox="0 0 442.448 442.448" width="512" xmlns="http://www.w3.org/2000/svg"><g><g><ellipse cx="219.828" cy="419.999" fill="#3a556a" rx="23.846" ry="22.449"/><path d="m177.275 326.011v91.143c0 5.29 4.288 9.578 9.578 9.578h65.901c5.29 0 9.578-4.288 9.578-9.578v-79.62z" fill="#2f4859"/><g fill="#e1e6e9"><path d="m206.957 66.998c-70.412 8.221-120.829 71.966-112.609 142.378 3.372 28.874 16.444 55.749 37.078 76.226 15.227 15.48 24.579 35.786 26.441 57.42.442 5.177 4.781 9.149 9.977 9.13h108.254c5.143.026 9.463-3.862 9.977-8.98 2.546-22.586 12.594-43.665 28.535-59.864 49.136-51.138 47.515-132.426-3.623-181.563-27.667-26.584-65.773-39.405-103.884-34.948z"/><path d="m217.683 0h8.531v52.98h-8.531z"/><path d="m115.234 32.792h8.531v52.979h-8.531z" transform="matrix(.809 -.588 .588 .809 -12.022 81.564)"/><path d="m51.656 119.606h8.531v52.981h-8.531z" transform="matrix(.309 -.951 .951 .309 -100.305 154.139)"/><path d="m28.976 249.453h52.98v8.531h-52.98z" transform="matrix(.951 -.309 .309 .951 -75.661 29.541)"/><path d="m382.32 228.557h8.531v52.981h-8.531z" transform="matrix(.309 -.951 .951 .309 24.568 543.909)"/><path d="m360.493 143.251h52.98v8.531h-52.98z" transform="matrix(.951 -.309 .309 .951 -26.642 126.753)"/><path d="m297.674 55.936h52.978v8.53h-52.978z" transform="matrix(.588 -.809 .809 .588 84.885 287.031)"/></g><path d="m212.295 156.395c-19.87 11.008-33.978 30.105-38.663 52.332-1.768 8.572-1.987 17.392-.649 26.041 1.361 6.475 3.332 12.805 5.887 18.907 4.241 10.626 6.485 18.757 6.485 18.757 5.858 5.137 13.156 8.343 20.903 9.18 6.95.47 13.917-.604 20.404-3.143 6.185-2.495 10.776-4.341 14.518-6.185 3.695-2.022 7.059-4.596 9.977-7.633 6.461-6.821 11.783-14.637 15.764-23.148 4.836-9.554 8.664-19.586 11.424-29.933 3.561-13.795 8.578-27.173 14.966-39.91 4.689-9.28 7.683-14.368 7.683-14.368-27.474-15.417-60.918-15.757-88.699-.897z" fill="#65b54e"/><path d="m211.847 197.851c2.166-7.511 2.878-15.368 2.096-23.148-.239-2.705-1.019-5.335-2.295-7.733.335 12.071-.94 24.134-3.792 35.868-10.468 14.104-17.458 30.478-20.404 47.791-.925 6.5-2.342 12.921-4.241 19.207-1.571 4.723-3.787 9.205-6.585 13.319-2.276 2.721-1.943 6.767.749 9.08 4.291 3.742 13.269.399 14.966-5.937 5.887-18.308 2.943-34.422 6.585-47.443 9.578-9.783 22.371-15.772 36.018-16.861 6.577-.733 13.228-.413 19.706.947-10.755-3.965-22.333-5.166-33.674-3.492-6.591.905-12.849 3.444-18.208 7.384 6.975-16.433 17.807-30.943 31.579-42.305 6.513-2.821 13.701-3.704 20.703-2.545 2.836.537 5.564 1.532 8.081 2.943-6.563-4.545-14.59-6.467-22.499-5.388 2.593-1.946 4.989-3.742 7.683-5.288 6.946-4.385 14.296-8.093 21.95-11.076 2.903-1.22 5.886-2.237 8.93-3.043-26.393 3.668-50.437 17.133-67.348 37.72z" fill="#5fa348"/><path d="m263.18 184.931c.549.399 1.097.699 1.646 1.147z" fill="#44c4a1"/><g fill="#3a556a"><path d="m267.072 363.178h-94.785c-3.044-.289-5.748 1.943-6.037 4.987s1.943 5.748 4.987 6.037c.35.034.7.034 1.05 0h94.785c3.044.289 5.748-1.943 6.037-4.987s-1.943-5.748-4.987-6.037c-.35-.034-.702-.034-1.05 0z"/><path d="m267.072 383.931h-94.785c-3.044-.289-5.748 1.943-6.037 4.987s1.943 5.748 4.987 6.037c.35.034.7.034 1.05 0h94.785c3.044.289 5.748-1.943 6.037-4.987s-1.943-5.748-4.987-6.037c-.35-.034-.702-.034-1.05 0z"/><path d="m267.072 404.684h-94.785c-3.044-.289-5.748 1.943-6.037 4.987s1.943 5.748 4.987 6.037c.35.034.7.034 1.05 0h94.785c3.044.289 5.748-1.943 6.037-4.987s-1.943-5.748-4.987-6.037c-.35-.034-.702-.034-1.05 0z"/></g></g></g></svg>