<svg width="45" height="45" viewBox="0 0 45 45" fill="none" xmlns="http://www.w3.org/2000/svg">
<path d="M22.5 41.7C33.1039 41.7 41.7001 33.1039 41.7001 22.5C41.7001 11.8961 33.1039 3.29999 22.5 3.29999C11.8962 3.29999 3.30005 11.8961 3.30005 22.5C3.30005 33.1039 11.8962 41.7 22.5 41.7Z" fill="#7958FE"/>
<path d="M22.224 20.07L23.223 24.813L27.486 26.928L28.179 26.046L28.908 24.909L24.921 19.776L22.224 20.07Z" fill="#FCD462"/>
<path d="M28.323 26.121L27.723 25.548L20.916 18.582L16.296 16.095L12.465 21.114L15.198 25.089L21.432 30.864C21.4574 30.8944 21.4844 30.9235 21.513 30.951L21.9 31.308L22.275 31.653L22.524 31.878C22.7076 32.0429 22.9435 32.1376 23.1901 32.1455C23.4368 32.1533 23.6783 32.0739 23.872 31.921C24.0657 31.7682 24.1993 31.5518 24.249 31.3101C24.2988 31.0684 24.2616 30.8169 24.144 30.6C24.3538 30.7245 24.6002 30.7724 24.8414 30.7358C25.0825 30.6992 25.3036 30.5801 25.467 30.399C25.6115 30.2379 25.7024 30.036 25.7271 29.821C25.7518 29.606 25.7092 29.3886 25.605 29.199C25.8017 29.3174 26.0319 29.3679 26.2601 29.3427C26.4883 29.3174 26.7019 29.2178 26.868 29.0593C27.0341 28.9007 27.1434 28.6919 27.1792 28.4651C27.215 28.2383 27.1752 28.006 27.066 27.804C27.29 27.9372 27.5556 27.9823 27.811 27.9306C28.0665 27.8788 28.2936 27.7339 28.4481 27.524C28.6027 27.3141 28.6736 27.0542 28.6471 26.7949C28.6207 26.5356 28.4987 26.2954 28.305 26.121H28.323Z" fill="#F7BE56"/>
<path d="M22.662 29.307C22.5012 29.162 22.2992 29.0709 22.0841 29.0461C21.869 29.0214 21.6516 29.0643 21.462 29.169C21.5823 28.9727 21.6344 28.7422 21.6101 28.5133C21.5858 28.2844 21.4866 28.0699 21.3278 27.9033C21.169 27.7366 20.9596 27.6271 20.7321 27.5918C20.5046 27.5565 20.2719 27.5973 20.07 27.708C20.1885 27.5112 20.239 27.281 20.2137 27.0528C20.1885 26.8246 20.0889 26.611 19.9303 26.4449C19.7717 26.2788 19.563 26.1695 19.3361 26.1337C19.1093 26.098 18.877 26.1377 18.675 26.247C18.8082 26.0229 18.8534 25.7573 18.8016 25.5019C18.7498 25.2464 18.6049 25.0193 18.395 24.8648C18.1851 24.7103 17.9252 24.6393 17.6659 24.6658C17.4066 24.6923 17.1664 24.8142 16.992 25.008L16.08 26.037C15.9152 26.2206 15.8204 26.4565 15.8125 26.7031C15.8047 26.9498 15.8842 27.1913 16.037 27.385C16.1898 27.5788 16.4062 27.7123 16.6479 27.762C16.8896 27.8118 17.1411 27.7746 17.358 27.657C17.2396 27.8537 17.1891 28.0839 17.2144 28.3121C17.2396 28.5404 17.3392 28.754 17.4978 28.92C17.6563 29.0861 17.8651 29.1955 18.0919 29.2312C18.3188 29.267 18.551 29.2272 18.753 29.118C18.6327 29.3142 18.5807 29.5447 18.605 29.7737C18.6293 30.0026 18.7285 30.217 18.8873 30.3837C19.0461 30.5503 19.2555 30.6598 19.483 30.6952C19.7104 30.7305 19.9432 30.6896 20.145 30.579C20.0118 30.803 19.9667 31.0686 20.0185 31.3241C20.0702 31.5795 20.2152 31.8066 20.4251 31.9611C20.635 32.1157 20.8949 32.1866 21.1542 32.1601C21.4135 32.1337 21.6537 32.0117 21.828 31.818L22.746 30.789C22.8382 30.6863 22.9091 30.5664 22.9547 30.4363C23.0004 30.3061 23.0199 30.1682 23.0121 30.0305C23.0042 29.8928 22.9693 29.758 22.9092 29.6338C22.8492 29.5096 22.7652 29.3986 22.662 29.307Z" fill="#FCD462"/>
<path d="M8.89978 19.0201L14.952 12.8469L19.8272 17.6265L13.775 23.7997L8.89978 19.0201Z" fill="#2F4859"/>
<path d="M25.5599 18.528L22.5329 17.85C22.2369 17.7829 21.9276 17.8059 21.6448 17.916C21.362 18.0262 21.1186 18.2184 20.9459 18.468L18.8999 21.417C18.8533 21.4837 18.8233 21.5605 18.8124 21.6411C18.8016 21.7218 18.8101 21.8038 18.8374 21.8805C18.8648 21.9571 18.91 22.0261 18.9694 22.0817C19.0288 22.1373 19.1007 22.1778 19.1789 22.2C19.6301 22.3342 20.1096 22.3405 20.5641 22.2181C21.0186 22.0958 21.4302 21.8496 21.7529 21.507L22.5629 20.646L28.1789 26.046L29.9999 24.141L32.3039 20.265L29.4239 15.21L25.5599 18.528Z" fill="#FCD462"/>
<path d="M25.292 17.5884L30.5222 13.2048L36.073 19.8277L30.8427 24.2112L25.292 17.5884Z" fill="#2F4859"/>
</svg>
