<svg width="54" height="54" viewBox="0 0 54 54" fill="none" xmlns="http://www.w3.org/2000/svg">
<g clip-path="url(#clip0)">
<path d="M26.8296 54C28.437 54 29.74 52.7733 29.74 51.2601C29.74 49.7469 28.437 48.5203 26.8296 48.5203C25.2223 48.5203 23.9193 49.7469 23.9193 51.2601C23.9193 52.7733 25.2223 54 26.8296 54Z" fill="#3A556A"/>
<path d="M21.6361 39.7891V50.9129C21.6361 51.5585 22.1595 52.0819 22.8051 52.0819H30.8482C31.4938 52.0819 32.0172 51.5585 32.0172 50.9129V41.1954L21.6361 39.7891Z" fill="#2F4859"/>
<path d="M25.2587 8.17698C16.6651 9.18034 10.5118 16.9603 11.515 25.554C11.9265 29.078 13.522 32.358 16.0403 34.8572C17.8987 36.7465 19.0401 39.2248 19.2674 41.8652C19.3213 42.4971 19.8509 42.9818 20.4851 42.9795H33.6973C34.325 42.9827 34.8522 42.5082 34.9149 41.8835C35.2257 39.1269 36.452 36.5543 38.3976 34.5772C44.3946 28.3359 44.1967 18.4149 37.9554 12.4178C34.5787 9.17326 29.9279 7.60848 25.2766 8.15244L25.2587 8.17698Z" fill="#7958FE"/>
<path d="M26.5679 0H27.6091V6.46612H26.5679V0Z" fill="#E1E6E9"/>
<path d="M12.2639 4.92282L13.1062 4.3106L16.9082 9.54159L16.0659 10.1538L12.2639 4.92282Z" fill="#E1E6E9"/>
<path d="M3.58844 17.3275L3.91017 16.3373L10.0596 18.3354L9.73783 19.3255L3.58844 17.3275Z" fill="#E1E6E9"/>
<path d="M3.5365 31.4662L9.68578 29.4681L10.0075 30.4583L3.85823 32.4563L3.5365 31.4662Z" fill="#E1E6E9"/>
<path d="M43.945 30.6276L44.2667 29.6374L50.4161 31.6355L50.0944 32.6257L43.945 30.6276Z" fill="#E1E6E9"/>
<path d="M43.9925 18.5016L50.1418 16.5036L50.4635 17.4937L44.3142 19.4918L43.9925 18.5016Z" fill="#E1E6E9"/>
<path d="M37.2454 9.65439L41.0474 4.4235L41.8896 5.03565L38.0876 10.2665L37.2454 9.65439Z" fill="#E1E6E9"/>
<path d="M25.9102 19.0877C23.4851 20.4312 21.7633 22.762 21.1915 25.4748C20.9757 26.5209 20.949 27.5974 21.1123 28.653C21.2784 29.4433 21.5189 30.2158 21.8308 30.9606C22.3484 32.2575 22.6223 33.2498 22.6223 33.2498C23.3372 33.8768 24.2279 34.2681 25.1734 34.3702C26.0217 34.4276 26.872 34.2965 27.6637 33.9866C28.4186 33.6821 28.9789 33.4568 29.4356 33.2318C29.8866 32.985 30.2971 32.6708 30.6533 32.3002C31.4418 31.4677 32.0914 30.5138 32.5772 29.475C33.1675 28.309 33.6347 27.0846 33.9715 25.8217C34.4061 24.1381 35.0185 22.5053 35.7981 20.9508C36.3704 19.8182 36.7358 19.1972 36.7358 19.1972C33.3826 17.3156 29.3009 17.2741 25.9102 19.0877Z" fill="#65B54E"/>
<path d="M25.8556 24.1474C26.1199 23.2307 26.2068 22.2717 26.1114 21.3222C26.0822 20.992 25.987 20.6711 25.8313 20.3784C25.8722 21.8516 25.7166 23.3239 25.3685 24.756C24.0909 26.4774 23.2378 28.4758 22.8782 30.5888C22.7653 31.3821 22.5924 32.1658 22.3606 32.933C22.1689 33.5094 21.8984 34.0565 21.5569 34.5586C21.2791 34.8907 21.3198 35.3845 21.6483 35.6668C22.172 36.1235 23.2678 35.7155 23.4749 34.9422C24.1934 32.7077 23.8341 30.741 24.2786 29.1518C25.4476 27.9578 27.0089 27.2269 28.6745 27.094C29.4772 27.0045 30.289 27.0436 31.0796 27.2096C29.767 26.7256 28.3539 26.5791 26.9698 26.7834C26.1653 26.8938 25.4016 27.2037 24.7475 27.6846C25.5988 25.6789 26.9208 23.908 28.6017 22.5213C29.3966 22.177 30.2738 22.0692 31.1284 22.2107C31.4746 22.2762 31.8075 22.3977 32.1147 22.5699C31.3137 22.0152 30.334 21.7806 29.3687 21.9123C29.6852 21.6748 29.9776 21.4556 30.3064 21.2669C31.1542 20.7317 32.0512 20.2792 32.9854 19.9151C33.3397 19.7662 33.7038 19.6421 34.0753 19.5437C30.8541 19.9914 27.9195 21.6348 25.8556 24.1474Z" fill="#5FA348"/>
<path d="M32.1207 22.5705C32.1877 22.6192 32.2545 22.6558 32.3216 22.7105L32.1207 22.5705Z" fill="#44C4A1"/>
<path d="M32.5957 44.3253H21.0274C20.6558 44.29 20.3258 44.5624 20.2905 44.9339C20.2553 45.3054 20.5277 45.6354 20.8992 45.6707C20.9419 45.6749 20.9846 45.6749 21.0274 45.6707H32.5957C32.9672 45.706 33.2972 45.4336 33.3325 45.0621C33.3678 44.6905 33.0954 44.3605 32.7239 44.3253C32.6811 44.3211 32.6382 44.3211 32.5957 44.3253Z" fill="#3A556A"/>
<path d="M32.5957 46.8581H21.0274C20.6558 46.8229 20.3258 47.0953 20.2905 47.4668C20.2553 47.8383 20.5277 48.1683 20.8992 48.2036C20.9419 48.2077 20.9846 48.2077 21.0274 48.2036H32.5957C32.9672 48.2389 33.2972 47.9664 33.3325 47.5949C33.3678 47.2234 33.0954 46.8934 32.7239 46.8581C32.6811 46.854 32.6382 46.854 32.5957 46.8581Z" fill="#3A556A"/>
<path d="M32.5957 49.391H21.0274C20.6558 49.3557 20.3258 49.6281 20.2905 49.9996C20.2553 50.3712 20.5277 50.7012 20.8992 50.7365C20.9419 50.7406 20.9846 50.7406 21.0274 50.7365H32.5957C32.9672 50.7717 33.2972 50.4993 33.3325 50.1278C33.3678 49.7563 33.0954 49.4263 32.7239 49.391C32.6811 49.3868 32.6382 49.3868 32.5957 49.391Z" fill="#3A556A"/>
</g>
<defs>
<clipPath id="clip0">
<rect width="54" height="54" fill="white"/>
</clipPath>
</defs>
</svg>
