<svg width="45" height="45" viewBox="0 0 45 45" fill="none" xmlns="http://www.w3.org/2000/svg">
<path d="M22.5 0C14.5036 0 7.99805 6.59347 7.99805 14.5898V22.5H22.5H37.002V14.5898C37.002 6.59347 30.4964 0 22.5 0Z" fill="#7958FE"/>
<path d="M37.002 14.5898C37.002 6.59347 30.4964 0 22.5 0V22.5H37.002V14.5898Z" fill="#7958FE"/>
<path d="M32.8216 31.9628C29.2309 31.0784 27.0255 30.414 26.4551 27.0409H22.5H18.5449C17.9746 30.414 15.7692 31.0784 12.1784 31.9628C7.96588 32.9992 2.72461 34.3784 2.72461 43.6816C2.72461 44.4103 3.31427 45 4.04297 45H15.9082L18.5449 42.3633H22.5H26.4551L29.0918 45H40.957C41.6857 45 42.2754 44.4103 42.2754 43.6816C42.2754 34.3784 37.0341 32.9992 32.8216 31.9628Z" fill="#7958FE"/>
<path d="M29.0918 45H40.957C41.6857 45 42.2754 44.4103 42.2754 43.6816C42.2754 34.3784 37.0341 32.9992 32.8216 31.9628C29.2309 31.0784 27.0255 30.414 26.4551 27.0409H22.5V42.3633H26.4551L29.0918 45Z" fill="#7958FE"/>
<path d="M31.7285 13.3542L29.0918 14.5898H22.5H15.9082L13.2715 13.3542C10.0527 15.5323 7.99805 18.8234 7.99805 22.5C7.99805 27.7167 10.0252 32.9832 13.977 36.935L17.6128 40.5708H22.5H27.3872L31.0229 36.935C34.9647 32.9933 37.002 27.7308 37.002 22.5C37.002 18.8234 34.9473 15.5323 31.7285 13.3542Z" fill="#474F54"/>
<path d="M31.023 36.935C34.9647 32.9933 37.002 27.7308 37.002 22.5C37.002 18.8234 34.9473 15.5323 31.7285 13.3542L29.0918 14.5898H22.5V40.5708H27.3872L31.023 36.935Z" fill="#32393F"/>
<path d="M22.5 32.8929L15.9082 32.8792V45H22.5H29.0918V32.9067L22.5 32.8929Z" fill="#F2F2FC"/>
<path d="M29.0918 32.9067L22.5 32.8929V45H29.0918V32.9067Z" fill="#E2D9FB"/>
<path d="M22.5 18.5449H15.9082V32.8792C17.6181 34.628 19.9753 35.6836 22.5 35.6836C25.0231 35.6836 27.3807 34.6561 29.0918 32.9067V18.5449H22.5Z" fill="#FFCCB3"/>
<path d="M29.0918 18.5449H22.5V35.6836C25.0231 35.6836 27.3807 34.6561 29.0918 32.9067V18.5449Z" fill="#FFBB99"/>
<path d="M22.4999 25.1366V27.7733" stroke="black" stroke-width="30" stroke-miterlimit="10" stroke-linecap="round" stroke-linejoin="round"/>
<path d="M22.5 10.6348C18.9971 10.6348 15.7806 11.6564 13.2715 13.3542V19.8633C13.2715 24.9601 17.4032 29.0918 22.5 29.0918C27.5968 29.0918 31.7285 24.9601 31.7285 19.8633V13.3542C29.2194 11.6564 26.0029 10.6348 22.5 10.6348Z" fill="#FFDDCC"/>
<path d="M31.7285 19.8633V13.3542C29.2194 11.6564 26.0029 10.6348 22.5 10.6348V29.0918C27.5968 29.0918 31.7285 24.9601 31.7285 19.8633Z" fill="#FFCCB3"/>
</svg>
